<svg width="29" height="30" viewBox="0 0 29 30" fill="none" xmlns="http://www.w3.org/2000/svg">
<path d="M18 14.4C18 12.7026 17.3679 11.0748 16.2426 9.87452C15.1174 8.67428 13.5913 8 12 8C10.4087 8 8.88258 8.67428 7.75736 9.87452C6.63214 11.0748 6 12.7026 6 14.4C6 21.8667 3 24 3 24H21C21 24 18 21.8667 18 14.4Z" stroke="#6B7280" stroke-width="1.5" stroke-linecap="round" stroke-linejoin="round"/>
<path d="M13.7334 27C13.5576 27.3031 13.3053 27.5547 13.0016 27.7295C12.698 27.9044 12.3538 27.9965 12.0034 27.9965C11.653 27.9965 11.3088 27.9044 11.0052 27.7295C10.7016 27.5547 10.4492 27.3031 10.2734 27" stroke="#6B7280" stroke-width="1.5" stroke-linecap="round" stroke-linejoin="round"/>
<rect x="13" width="16" height="16" rx="8" fill="#ED2D2C"/>
<path d="M20.8226 12.5V4.828L19.3666 5.08V3.806L22.3346 3.344V12.5H20.8226Z" fill="white"/>
</svg>
