<svg width="265" height="268" viewBox="0 0 265 268" fill="none" xmlns="http://www.w3.org/2000/svg">
<g clip-path="url(#clip0_2364_12394)">
<rect x="0.106445" y="0.106445" width="264.894" height="267.593" rx="3.64073" fill="white"/>
<rect x="0.106445" y="0.106445" width="264.894" height="267.593" rx="3.64073" fill="white"/>
<path d="M0.106445 3.74717C0.106445 1.73646 1.73645 0.106445 3.74717 0.106445H261.466C263.476 0.106445 265.106 1.73645 265.106 3.74717V29.2323H0.106445V3.74717Z" fill="white"/>
<line x1="0.106445" y1="29.0049" x2="264.969" y2="29.0049" stroke="#3347E6" stroke-width="0.455091"/>
<path d="M12.6994 13.5674L11.0119 8.20186H11.8966L12.6994 10.987C12.7923 11.2983 12.8742 11.5932 12.9452 11.8717C13.0162 12.1448 13.0981 12.4369 13.1909 12.7482H13.2237C13.3165 12.4369 13.3984 12.1448 13.4694 11.8717C13.5459 11.5932 13.6278 11.2983 13.7152 10.987L14.5098 8.20186H15.3617L13.6824 13.5674H12.6994ZM17.65 13.6657C17.2841 13.6657 16.9537 13.5838 16.6588 13.4199C16.3694 13.2506 16.1373 13.0104 15.9625 12.6991C15.7877 12.3878 15.7004 12.011 15.7004 11.5686C15.7004 11.1372 15.7877 10.7658 15.9625 10.4546C16.1373 10.1378 16.3639 9.8948 16.6424 9.72551C16.9209 9.55075 17.2158 9.46337 17.5271 9.46337C17.8766 9.46337 18.1715 9.54256 18.4118 9.70093C18.6575 9.8593 18.8432 10.0805 18.9688 10.3645C19.0944 10.6484 19.1572 10.9788 19.1572 11.3556C19.1572 11.4321 19.1518 11.5113 19.1409 11.5932C19.1354 11.6697 19.1272 11.7325 19.1163 11.7816H16.3475L16.3393 11.2082H18.4364C18.4364 10.8587 18.3599 10.5884 18.207 10.3972C18.0596 10.2061 17.8384 10.1105 17.5435 10.1105C17.3687 10.1105 17.1994 10.1597 17.0356 10.258C16.8718 10.3563 16.7352 10.5146 16.626 10.7331C16.5223 10.9461 16.4704 11.2246 16.4704 11.5686C16.4704 11.9018 16.5305 12.1748 16.6506 12.3878C16.7707 12.6008 16.9264 12.7591 17.1175 12.8629C17.3141 12.9667 17.5271 13.0185 17.7565 13.0185C17.9367 13.0185 18.1032 12.9912 18.2562 12.9366C18.4145 12.882 18.5674 12.8083 18.7149 12.7155L19.0016 13.2397C18.8159 13.3599 18.6084 13.4609 18.379 13.5428C18.1551 13.6247 17.9121 13.6657 17.65 13.6657ZM20.0907 13.5674V9.56167H20.7706L20.8361 10.2825H20.8607C21.0027 10.0259 21.172 9.82654 21.3686 9.68455C21.5707 9.5371 21.7809 9.46337 21.9993 9.46337C22.0922 9.46337 22.1741 9.47157 22.2451 9.48795C22.3161 9.49887 22.3816 9.51799 22.4417 9.54529L22.2942 10.2662C22.2233 10.2443 22.1577 10.2279 22.0976 10.217C22.043 10.2061 21.9748 10.2006 21.8929 10.2006C21.729 10.2006 21.557 10.2662 21.3768 10.3972C21.1966 10.5228 21.0437 10.7467 20.9181 11.0689V13.5674H20.0907ZM24.402 13.6657C23.9542 13.6657 23.6402 13.5373 23.46 13.2807C23.2797 13.0185 23.1896 12.68 23.1896 12.2649V10.2252H22.608V9.60263L23.2306 9.56167L23.3289 8.4558H24.017V9.56167H25.0655V10.2252H24.017V12.2731C24.017 12.5079 24.0634 12.6881 24.1562 12.8138C24.2491 12.9394 24.3993 13.0022 24.6068 13.0022C24.6778 13.0022 24.7515 12.994 24.828 12.9776C24.9099 12.9557 24.9809 12.9312 25.0409 12.9039L25.1884 13.5182C25.0792 13.5565 24.9563 13.5892 24.8198 13.6165C24.6832 13.6493 24.544 13.6657 24.402 13.6657ZM25.9304 13.5674V9.56167H26.7578V13.5674H25.9304ZM26.3482 8.80804C26.2062 8.80804 26.0861 8.76162 25.9878 8.66879C25.8895 8.57049 25.8403 8.45034 25.8403 8.30835C25.8403 8.16637 25.8895 8.04895 25.9878 7.95611C26.0861 7.86328 26.2062 7.81686 26.3482 7.81686C26.4957 7.81686 26.6158 7.86328 26.7086 7.95611C26.8069 8.04895 26.8561 8.16637 26.8561 8.30835C26.8561 8.45034 26.8069 8.57049 26.7086 8.66879C26.6158 8.76162 26.4957 8.80804 26.3482 8.80804ZM29.6485 13.6657C29.288 13.6657 28.9631 13.5838 28.6737 13.4199C28.3897 13.2561 28.1631 13.0185 27.9938 12.7073C27.8245 12.3905 27.7398 12.011 27.7398 11.5686C27.7398 11.1263 27.8327 10.7495 28.0183 10.4382C28.204 10.1214 28.4443 9.88115 28.7392 9.71731C29.0396 9.54802 29.3645 9.46337 29.714 9.46337C29.9707 9.46337 30.1946 9.50979 30.3857 9.60263C30.5769 9.69001 30.7434 9.7965 30.8854 9.92211L30.4758 10.4628C30.3666 10.359 30.2547 10.2798 30.14 10.2252C30.0253 10.1706 29.897 10.1433 29.755 10.1433C29.5256 10.1433 29.3235 10.2034 29.1488 10.3235C28.974 10.4382 28.8375 10.6047 28.7392 10.8232C28.6409 11.0362 28.5918 11.2846 28.5918 11.5686C28.5918 11.8526 28.6382 12.1011 28.731 12.3141C28.8293 12.527 28.9631 12.6936 29.1324 12.8138C29.3072 12.9284 29.5065 12.9858 29.7304 12.9858C29.8997 12.9858 30.0581 12.9503 30.2055 12.8793C30.3584 12.8083 30.4922 12.7209 30.6069 12.6172L30.9509 13.166C30.7653 13.3298 30.5605 13.4554 30.3366 13.5428C30.1127 13.6247 29.8833 13.6657 29.6485 13.6657ZM32.7284 13.6657C32.499 13.6657 32.2942 13.6193 32.114 13.5264C31.9393 13.4281 31.8 13.2943 31.6963 13.125C31.598 12.9503 31.5488 12.7455 31.5488 12.5107C31.5488 12.0792 31.7399 11.7461 32.1222 11.5113C32.5045 11.2765 33.1134 11.1126 33.949 11.0198C33.949 10.8669 33.9244 10.7222 33.8752 10.5856C33.8315 10.4491 33.7524 10.3399 33.6377 10.258C33.5285 10.176 33.3755 10.1351 33.1789 10.1351C32.966 10.1351 32.7612 10.176 32.5646 10.258C32.3734 10.3399 32.1932 10.4354 32.0239 10.5447L31.7126 9.98764C31.8492 9.90026 32.0021 9.81835 32.1714 9.74189C32.3407 9.65997 32.5209 9.59444 32.712 9.54529C32.9086 9.49068 33.1134 9.46337 33.3264 9.46337C33.6541 9.46337 33.9244 9.53164 34.1374 9.66817C34.3558 9.80469 34.5169 9.99856 34.6207 10.2498C34.7244 10.501 34.7763 10.8041 34.7763 11.159V13.5674H34.0964L34.0309 13.1087H34.0063C33.8261 13.2616 33.6295 13.3926 33.4165 13.5018C33.2035 13.6111 32.9742 13.6657 32.7284 13.6657ZM32.9823 13.0104C33.1571 13.0104 33.3209 12.9694 33.4738 12.8875C33.6268 12.8056 33.7851 12.6881 33.949 12.5352V11.544C33.5503 11.5932 33.2336 11.6587 32.9987 11.7406C32.7694 11.8226 32.6028 11.9236 32.499 12.0437C32.4007 12.1639 32.3516 12.2977 32.3516 12.4451C32.3516 12.6417 32.4117 12.7864 32.5318 12.8793C32.6519 12.9667 32.8021 13.0104 32.9823 13.0104ZM36.7893 13.6657C36.5873 13.6657 36.4262 13.6247 36.306 13.5428C36.1859 13.4609 36.0985 13.3435 36.0439 13.1906C35.9893 13.0377 35.962 12.852 35.962 12.6335V7.75951H36.7893V12.6827C36.7893 12.7919 36.8085 12.8711 36.8467 12.9202C36.8904 12.9639 36.9368 12.9858 36.9859 12.9858C37.0078 12.9858 37.0269 12.9858 37.0433 12.9858C37.0651 12.9803 37.0952 12.9749 37.1334 12.9694L37.2399 13.592C37.1853 13.6138 37.1225 13.6302 37.0515 13.6411C36.9805 13.6575 36.8931 13.6657 36.7893 13.6657ZM41.6295 13.6657C41.4438 13.6657 41.2554 13.622 41.0643 13.5346C40.8731 13.4418 40.6902 13.3134 40.5154 13.1496H40.4909L40.4171 13.5674H39.7618V7.75951H40.5892V9.29954L40.5646 9.98764C40.7394 9.83473 40.9278 9.70912 41.1298 9.61082C41.3373 9.51252 41.5476 9.46337 41.7606 9.46337C42.0992 9.46337 42.3859 9.54802 42.6207 9.71731C42.861 9.88661 43.0412 10.1242 43.1613 10.43C43.287 10.7303 43.3498 11.088 43.3498 11.5031C43.3498 11.9564 43.2678 12.3468 43.104 12.6745C42.9402 12.9967 42.7272 13.2424 42.4651 13.4117C42.2084 13.581 41.9299 13.6657 41.6295 13.6657ZM41.4657 12.9776C41.6623 12.9776 41.837 12.923 41.9899 12.8138C42.1483 12.6991 42.2712 12.5325 42.3586 12.3141C42.4514 12.0956 42.4978 11.828 42.4978 11.5113C42.4978 11.2328 42.4651 10.9925 42.3995 10.7904C42.334 10.5829 42.2302 10.4245 42.0882 10.3153C41.9517 10.2061 41.7715 10.1515 41.5476 10.1515C41.3947 10.1515 41.239 10.1924 41.0807 10.2743C40.9223 10.3508 40.7585 10.4737 40.5892 10.643V12.609C40.7421 12.7455 40.895 12.8411 41.0479 12.8957C41.2063 12.9503 41.3455 12.9776 41.4657 12.9776ZM45.2878 13.6657C45.0585 13.6657 44.8537 13.6193 44.6735 13.5264C44.4987 13.4281 44.3595 13.2943 44.2557 13.125C44.1574 12.9503 44.1082 12.7455 44.1082 12.5107C44.1082 12.0792 44.2994 11.7461 44.6817 11.5113C45.0639 11.2765 45.6728 11.1126 46.5084 11.0198C46.5084 10.8669 46.4838 10.7222 46.4347 10.5856C46.391 10.4491 46.3118 10.3399 46.1971 10.258C46.0879 10.176 45.935 10.1351 45.7384 10.1351C45.5254 10.1351 45.3206 10.176 45.124 10.258C44.9329 10.3399 44.7527 10.4354 44.5834 10.5447L44.2721 9.98764C44.4086 9.90026 44.5615 9.81835 44.7308 9.74189C44.9001 9.65997 45.0803 9.59444 45.2715 9.54529C45.4681 9.49068 45.6728 9.46337 45.8858 9.46337C46.2135 9.46337 46.4838 9.53164 46.6968 9.66817C46.9152 9.80469 47.0763 9.99856 47.1801 10.2498C47.2839 10.501 47.3357 10.8041 47.3357 11.159V13.5674H46.6558L46.5903 13.1087H46.5657C46.3855 13.2616 46.1889 13.3926 45.9759 13.5018C45.763 13.6111 45.5336 13.6657 45.2878 13.6657ZM45.5418 13.0104C45.7165 13.0104 45.8804 12.9694 46.0333 12.8875C46.1862 12.8056 46.3446 12.6881 46.5084 12.5352V11.544C46.1097 11.5932 45.793 11.6587 45.5582 11.7406C45.3288 11.8226 45.1622 11.9236 45.0585 12.0437C44.9602 12.1639 44.911 12.2977 44.911 12.4451C44.911 12.6417 44.9711 12.7864 45.0912 12.8793C45.2114 12.9667 45.3616 13.0104 45.5418 13.0104ZM48.5214 13.5674V9.56167H49.2013L49.2669 10.2825H49.2914C49.4334 10.0259 49.6027 9.82654 49.7993 9.68455C50.0014 9.5371 50.2116 9.46337 50.4301 9.46337C50.5229 9.46337 50.6048 9.47157 50.6758 9.48795C50.7468 9.49887 50.8124 9.51799 50.8724 9.54529L50.725 10.2662C50.654 10.2443 50.5884 10.2279 50.5284 10.217C50.4738 10.2061 50.4055 10.2006 50.3236 10.2006C50.1598 10.2006 49.9877 10.2662 49.8075 10.3972C49.6273 10.5228 49.4744 10.7467 49.3488 11.0689V13.5674H48.5214ZM52.5788 13.6657C52.3003 13.6657 52.0272 13.6138 51.7596 13.51C51.4975 13.4008 51.2681 13.267 51.0715 13.1087L51.4647 12.5762C51.6395 12.7127 51.817 12.8247 51.9972 12.9121C52.1828 12.994 52.3849 13.0349 52.6034 13.0349C52.8436 13.0349 53.0211 12.983 53.1358 12.8793C53.2505 12.7755 53.3078 12.6472 53.3078 12.4943C53.3078 12.3741 53.2641 12.2731 53.1768 12.1912C53.0894 12.1038 52.9774 12.0301 52.8409 11.97C52.7098 11.9099 52.5706 11.8526 52.4231 11.798C52.2429 11.727 52.0627 11.6451 51.8825 11.5522C51.7077 11.4594 51.5603 11.3393 51.4401 11.1918C51.3255 11.0444 51.2681 10.8587 51.2681 10.6348C51.2681 10.2962 51.3937 10.0177 51.6449 9.79923C51.9016 9.57533 52.2511 9.46337 52.6935 9.46337C52.9611 9.46337 53.2041 9.50979 53.4225 9.60263C53.641 9.69547 53.8294 9.80469 53.9877 9.9303L53.6027 10.4464C53.4607 10.3426 53.316 10.258 53.1686 10.1924C53.0266 10.1269 52.8737 10.0941 52.7098 10.0941C52.4859 10.0941 52.3194 10.1433 52.2102 10.2416C52.1064 10.3399 52.0545 10.4573 52.0545 10.5938C52.0545 10.7085 52.0955 10.8041 52.1774 10.8805C52.2593 10.9515 52.3658 11.0143 52.4969 11.0689C52.6279 11.1235 52.7672 11.1782 52.9146 11.2328C53.1003 11.3038 53.2833 11.3857 53.4635 11.4785C53.6437 11.5714 53.7939 11.6942 53.914 11.8471C54.0342 11.9946 54.0942 12.1939 54.0942 12.4451C54.0942 12.669 54.0342 12.8738 53.914 13.0595C53.7993 13.2452 53.63 13.3926 53.4061 13.5018C53.1822 13.6111 52.9064 13.6657 52.5788 13.6657Z" fill="#222539"/>
<path d="M11.6909 23.4775L11.873 21.9703H11.2832V21.5916H11.9167L12.055 20.4776H11.4288V20.0989H12.0987L12.2734 18.7446H12.623L12.4555 20.0989H13.453L13.6278 18.7446H13.9773L13.8098 20.0989H14.3924V20.4776H13.7661L13.6278 21.5916H14.2467V21.9703H13.5841L13.4021 23.4775H13.0453L13.2273 21.9703H12.2298L12.0477 23.4775H11.6909ZM12.2734 21.5916H13.271L13.4094 20.4776H12.4118L12.2734 21.5916ZM14.969 23.4775V23.0334H16.0393V19.5019H15.1947V19.1596C15.4034 19.1257 15.5854 19.082 15.7408 19.0286C15.8961 18.9703 16.0369 18.9048 16.1631 18.832H16.5709V23.0334H17.5393V23.4775H14.969ZM21.3429 23.5649C21.0322 23.5649 20.7531 23.4921 20.5055 23.3465C20.258 23.2008 20.0614 22.9921 19.9157 22.7203C19.7701 22.4436 19.6973 22.1086 19.6973 21.7154C19.6973 21.3222 19.775 20.9873 19.9303 20.7106C20.0905 20.4339 20.2968 20.2227 20.5492 20.0771C20.8016 19.9315 21.0783 19.8587 21.3793 19.8587C21.6123 19.8587 21.8113 19.9023 21.9764 19.9897C22.1414 20.0722 22.2846 20.1693 22.406 20.281L22.1293 20.6305C22.0274 20.5334 21.9157 20.4557 21.7943 20.3975C21.6778 20.3344 21.5468 20.3028 21.4011 20.3028C21.1778 20.3028 20.9788 20.3635 20.8041 20.4849C20.6342 20.6014 20.4982 20.7664 20.3963 20.98C20.2992 21.1936 20.2507 21.4387 20.2507 21.7154C20.2507 21.997 20.2968 22.2445 20.389 22.4581C20.4861 22.6669 20.6196 22.8295 20.7895 22.946C20.9594 23.0625 21.1584 23.1207 21.3866 23.1207C21.5565 23.1207 21.7142 23.0843 21.8599 23.0115C22.0055 22.9387 22.1341 22.8538 22.2458 22.7567L22.4788 23.1135C22.3235 23.2542 22.1487 23.3659 21.9545 23.4484C21.7604 23.5261 21.5565 23.5649 21.3429 23.5649ZM24.6276 23.5649C24.3412 23.5649 24.0742 23.4921 23.8266 23.3465C23.579 23.2008 23.38 22.9921 23.2295 22.7203C23.079 22.4436 23.0038 22.1086 23.0038 21.7154C23.0038 21.3222 23.079 20.9873 23.2295 20.7106C23.38 20.4339 23.579 20.2227 23.8266 20.0771C24.0742 19.9315 24.3412 19.8587 24.6276 19.8587C24.914 19.8587 25.1785 19.9315 25.4212 20.0771C25.6688 20.2227 25.8678 20.4339 26.0183 20.7106C26.1737 20.9873 26.2513 21.3222 26.2513 21.7154C26.2513 22.1086 26.1737 22.4436 26.0183 22.7203C25.8678 22.9921 25.6688 23.2008 25.4212 23.3465C25.1785 23.4921 24.914 23.5649 24.6276 23.5649ZM24.6276 23.1207C24.8412 23.1207 25.028 23.0625 25.1882 22.946C25.3533 22.8295 25.4795 22.6669 25.5669 22.4581C25.6591 22.2445 25.7052 21.997 25.7052 21.7154C25.7052 21.4387 25.6591 21.1936 25.5669 20.98C25.4795 20.7664 25.3533 20.6014 25.1882 20.4849C25.028 20.3635 24.8412 20.3028 24.6276 20.3028C24.4188 20.3028 24.2319 20.3635 24.0669 20.4849C23.9067 20.6014 23.7805 20.7664 23.6883 20.98C23.6009 21.1936 23.5572 21.4387 23.5572 21.7154C23.5572 21.997 23.6009 22.2445 23.6883 22.4581C23.7805 22.6669 23.9067 22.8295 24.0669 22.946C24.2319 23.0625 24.4188 23.1207 24.6276 23.1207ZM27.788 23.5649C27.6569 23.5649 27.5477 23.5358 27.4603 23.4775C27.373 23.4241 27.3099 23.344 27.271 23.2373C27.2322 23.1256 27.2128 22.9897 27.2128 22.8295V18.2786H27.737V22.8732C27.737 22.9606 27.754 23.0237 27.788 23.0625C27.822 23.1013 27.8608 23.1207 27.9045 23.1207C27.9191 23.1207 27.9361 23.1207 27.9555 23.1207C27.9749 23.1159 28.0016 23.111 28.0356 23.1062L28.1084 23.5139C28.0696 23.5237 28.0234 23.5334 27.97 23.5431C27.9215 23.5576 27.8608 23.5649 27.788 23.5649ZM30.3802 23.5649C30.0938 23.5649 29.8268 23.4921 29.5792 23.3465C29.3317 23.2008 29.1326 22.9921 28.9822 22.7203C28.8317 22.4436 28.7564 22.1086 28.7564 21.7154C28.7564 21.3222 28.8317 20.9873 28.9822 20.7106C29.1326 20.4339 29.3317 20.2227 29.5792 20.0771C29.8268 19.9315 30.0938 19.8587 30.3802 19.8587C30.6666 19.8587 30.9312 19.9315 31.1739 20.0771C31.4214 20.2227 31.6205 20.4339 31.771 20.7106C31.9263 20.9873 32.004 21.3222 32.004 21.7154C32.004 22.1086 31.9263 22.4436 31.771 22.7203C31.6205 22.9921 31.4214 23.2008 31.1739 23.3465C30.9312 23.4921 30.6666 23.5649 30.3802 23.5649ZM30.3802 23.1207C30.5938 23.1207 30.7807 23.0625 30.9409 22.946C31.1059 22.8295 31.2321 22.6669 31.3195 22.4581C31.4117 22.2445 31.4579 21.997 31.4579 21.7154C31.4579 21.4387 31.4117 21.1936 31.3195 20.98C31.2321 20.7664 31.1059 20.6014 30.9409 20.4849C30.7807 20.3635 30.5938 20.3028 30.3802 20.3028C30.1715 20.3028 29.9846 20.3635 29.8195 20.4849C29.6593 20.6014 29.5331 20.7664 29.4409 20.98C29.3535 21.1936 29.3098 21.4387 29.3098 21.7154C29.3098 21.997 29.3535 22.2445 29.4409 22.4581C29.5331 22.6669 29.6593 22.8295 29.8195 22.946C29.9846 23.0625 30.1715 23.1207 30.3802 23.1207ZM32.9654 23.4775V19.946H33.4023L33.446 20.5941H33.4678C33.5892 20.3708 33.7348 20.1936 33.9047 20.0625C34.0795 19.9266 34.2688 19.8587 34.4727 19.8587C34.5455 19.8587 34.611 19.8659 34.6693 19.8805C34.7275 19.8902 34.7833 19.9072 34.8367 19.9315L34.7348 20.3975C34.6765 20.3781 34.6231 20.3635 34.5746 20.3538C34.5309 20.3441 34.4727 20.3392 34.3998 20.3392C34.2494 20.3392 34.0916 20.4023 33.9266 20.5286C33.7615 20.6499 33.6159 20.8659 33.4897 21.1766V23.4775H32.9654Z" fill="#3F4252"/>
</g>
<line x1="34.252" y1="49.9394" x2="248.797" y2="49.9394" stroke="#D3D6DF" stroke-width="0.455091" stroke-linecap="square" stroke-dasharray="0.91 0.91"/>
<line x1="34.252" y1="76.335" x2="248.797" y2="76.335" stroke="#D3D6DF" stroke-width="0.455091" stroke-linecap="square" stroke-dasharray="0.91 0.91"/>
<line x1="34.252" y1="102.729" x2="248.797" y2="102.729" stroke="#D3D6DF" stroke-width="0.455091" stroke-linecap="square" stroke-dasharray="0.91 0.91"/>
<line x1="34.252" y1="129.125" x2="248.797" y2="129.125" stroke="#D3D6DF" stroke-width="0.455091" stroke-linecap="square" stroke-dasharray="0.91 0.91"/>
<line x1="34.252" y1="155.521" x2="248.797" y2="155.521" stroke="#D3D6DF" stroke-width="0.455091" stroke-linecap="square" stroke-dasharray="0.91 0.91"/>
<line x1="34.252" y1="181.916" x2="248.797" y2="181.916" stroke="#D3D6DF" stroke-width="0.455091" stroke-linecap="square" stroke-dasharray="0.91 0.91"/>
<line x1="34.0244" y1="208.311" x2="252.077" y2="208.311" stroke="#3347E6" stroke-width="0.455091"/>
<path d="M41.179 222.819V222.506C41.6547 222.026 42.0576 221.606 42.3877 221.247C42.7178 220.882 42.9678 220.557 43.1377 220.271C43.3076 219.984 43.3925 219.713 43.3925 219.455C43.3925 219.183 43.3173 218.96 43.1668 218.785C43.0212 218.611 42.7906 218.523 42.4751 218.523C42.2809 218.523 42.0964 218.577 41.9217 218.683C41.7518 218.79 41.5989 218.926 41.4629 219.091L41.1498 218.785C41.344 218.577 41.5503 218.409 41.7688 218.283C41.9872 218.152 42.2445 218.086 42.5406 218.086C42.8221 218.086 43.0648 218.142 43.2687 218.254C43.4775 218.366 43.6377 218.523 43.7493 218.727C43.861 218.926 43.9168 219.162 43.9168 219.433C43.9168 219.73 43.8318 220.028 43.6619 220.329C43.4969 220.63 43.2663 220.95 42.9702 221.29C42.6789 221.625 42.3416 221.994 41.9581 222.397C42.0843 222.387 42.2153 222.38 42.3513 222.375C42.4872 222.365 42.6158 222.361 42.7372 222.361H44.1425V222.819H41.179ZM46.2628 222.907C45.8065 222.907 45.4472 222.698 45.1851 222.281C44.9278 221.858 44.7992 221.259 44.7992 220.482C44.7992 219.7 44.9278 219.106 45.1851 218.698C45.4472 218.29 45.8065 218.086 46.2628 218.086C46.7239 218.086 47.0831 218.293 47.3404 218.705C47.5977 219.113 47.7263 219.705 47.7263 220.482C47.7263 221.259 47.5977 221.858 47.3404 222.281C47.0831 222.698 46.7239 222.907 46.2628 222.907ZM46.2628 222.477C46.4521 222.477 46.6171 222.407 46.7579 222.266C46.9035 222.125 47.0152 221.907 47.0929 221.611C47.1705 221.315 47.2094 220.938 47.2094 220.482C47.2094 220.021 47.1705 219.647 47.0929 219.361C47.0152 219.069 46.9035 218.856 46.7579 218.72C46.6171 218.584 46.4521 218.516 46.2628 218.516C46.0735 218.516 45.9084 218.584 45.7676 218.72C45.6269 218.856 45.5152 219.069 45.4327 219.361C45.355 219.647 45.3162 220.021 45.3162 220.482C45.3162 220.938 45.355 221.315 45.4327 221.611C45.5152 221.907 45.6269 222.125 45.7676 222.266C45.9084 222.407 46.0735 222.477 46.2628 222.477ZM48.4122 222.819V222.375H49.4825V218.844H48.6379V218.501C48.8466 218.467 49.0287 218.424 49.184 218.37C49.3393 218.312 49.4801 218.247 49.6063 218.174H50.0141V222.375H50.9825V222.819H48.4122ZM53.5614 222.819V219.645C53.5614 219.523 53.5663 219.378 53.576 219.208C53.5857 219.038 53.593 218.892 53.5978 218.771H53.5687C53.5104 218.878 53.4498 218.982 53.3866 219.084C53.3235 219.186 53.258 219.295 53.19 219.412L52.0323 221.086H54.7119V221.509H51.4643V221.166L53.4959 218.174H54.0638V222.819H53.5614Z" fill="#222539"/>
<path d="M68.3518 222.819V222.506C68.8275 222.026 69.2304 221.606 69.5605 221.247C69.8906 220.882 70.1406 220.557 70.3105 220.271C70.4804 219.984 70.5654 219.713 70.5654 219.455C70.5654 219.183 70.4901 218.96 70.3396 218.785C70.194 218.611 69.9634 218.523 69.6479 218.523C69.4537 218.523 69.2693 218.577 69.0945 218.683C68.9246 218.79 68.7717 218.926 68.6358 219.091L68.3227 218.785C68.5169 218.577 68.7232 218.409 68.9416 218.283C69.16 218.152 69.4173 218.086 69.7134 218.086C69.995 218.086 70.2377 218.142 70.4416 218.254C70.6503 218.366 70.8105 218.523 70.9222 218.727C71.0338 218.926 71.0896 219.162 71.0896 219.433C71.0896 219.73 71.0047 220.028 70.8348 220.329C70.6697 220.63 70.4392 220.95 70.143 221.29C69.8518 221.625 69.5144 221.994 69.1309 222.397C69.2571 222.387 69.3882 222.38 69.5241 222.375C69.66 222.365 69.7887 222.361 69.91 222.361H71.3154V222.819H68.3518ZM73.4356 222.907C72.9793 222.907 72.6201 222.698 72.358 222.281C72.1007 221.858 71.9721 221.259 71.9721 220.482C71.9721 219.7 72.1007 219.106 72.358 218.698C72.6201 218.29 72.9793 218.086 73.4356 218.086C73.8968 218.086 74.256 218.293 74.5133 218.705C74.7706 219.113 74.8992 219.705 74.8992 220.482C74.8992 221.259 74.7706 221.858 74.5133 222.281C74.256 222.698 73.8968 222.907 73.4356 222.907ZM73.4356 222.477C73.6249 222.477 73.79 222.407 73.9308 222.266C74.0764 222.125 74.188 221.907 74.2657 221.611C74.3434 221.315 74.3822 220.938 74.3822 220.482C74.3822 220.021 74.3434 219.647 74.2657 219.361C74.188 219.069 74.0764 218.856 73.9308 218.72C73.79 218.584 73.6249 218.516 73.4356 218.516C73.2463 218.516 73.0813 218.584 72.9405 218.72C72.7997 218.856 72.6881 219.069 72.6055 219.361C72.5279 219.647 72.489 220.021 72.489 220.482C72.489 220.938 72.5279 221.315 72.6055 221.611C72.6881 221.907 72.7997 222.125 72.9405 222.266C73.0813 222.407 73.2463 222.477 73.4356 222.477ZM75.585 222.819V222.375H76.6554V218.844H75.8107V218.501C76.0195 218.467 76.2015 218.424 76.3569 218.37C76.5122 218.312 76.653 218.247 76.7792 218.174H77.1869V222.375H78.1554V222.819H75.585ZM80.2027 222.907C79.9551 222.907 79.7367 222.878 79.5474 222.819C79.3629 222.756 79.2003 222.676 79.0595 222.579C78.9236 222.482 78.8022 222.38 78.6954 222.273L78.9649 221.924C79.1056 222.06 79.2683 222.183 79.4527 222.295C79.642 222.407 79.8775 222.463 80.159 222.463C80.3532 222.463 80.5304 222.416 80.6906 222.324C80.8508 222.232 80.977 222.103 81.0692 221.938C81.1614 221.773 81.2075 221.579 81.2075 221.356C81.2075 221.021 81.1153 220.761 80.9309 220.577C80.7464 220.387 80.4988 220.293 80.1881 220.293C80.0231 220.293 79.8799 220.317 79.7585 220.365C79.642 220.414 79.5134 220.484 79.3726 220.577L79.0814 220.395L79.2343 218.174H81.5134V218.633H79.7003L79.5692 220.082C79.6857 220.018 79.8022 219.97 79.9187 219.936C80.0352 219.897 80.1663 219.878 80.3119 219.878C80.5789 219.878 80.8192 219.931 81.0328 220.038C81.2512 220.14 81.4236 220.298 81.5498 220.511C81.6808 220.725 81.7464 220.999 81.7464 221.334C81.7464 221.669 81.6736 221.955 81.5279 222.193C81.3823 222.426 81.1906 222.603 80.9527 222.725C80.7197 222.846 80.4697 222.907 80.2027 222.907Z" fill="#222539"/>
<path d="M95.5247 222.819V222.506C96.0004 222.026 96.4033 221.606 96.7334 221.247C97.0635 220.882 97.3135 220.557 97.4834 220.271C97.6533 219.984 97.7382 219.713 97.7382 219.455C97.7382 219.183 97.663 218.96 97.5125 218.785C97.3669 218.611 97.1363 218.523 96.8208 218.523C96.6266 218.523 96.4421 218.577 96.2674 218.683C96.0975 218.79 95.9446 218.926 95.8086 219.091L95.4955 218.785C95.6897 218.577 95.896 218.409 96.1145 218.283C96.3329 218.152 96.5902 218.086 96.8863 218.086C97.1678 218.086 97.4106 218.142 97.6144 218.254C97.8232 218.366 97.9834 218.523 98.095 218.727C98.2067 218.926 98.2625 219.162 98.2625 219.433C98.2625 219.73 98.1775 220.028 98.0076 220.329C97.8426 220.63 97.612 220.95 97.3159 221.29C97.0246 221.625 96.6873 221.994 96.3038 222.397C96.43 222.387 96.561 222.38 96.697 222.375C96.8329 222.365 96.9615 222.361 97.0829 222.361H98.4882V222.819H95.5247ZM100.608 222.907C100.152 222.907 99.793 222.698 99.5308 222.281C99.2735 221.858 99.1449 221.259 99.1449 220.482C99.1449 219.7 99.2735 219.106 99.5308 218.698C99.793 218.29 100.152 218.086 100.608 218.086C101.07 218.086 101.429 218.293 101.686 218.705C101.943 219.113 102.072 219.705 102.072 220.482C102.072 221.259 101.943 221.858 101.686 222.281C101.429 222.698 101.07 222.907 100.608 222.907ZM100.608 222.477C100.798 222.477 100.963 222.407 101.104 222.266C101.249 222.125 101.361 221.907 101.439 221.611C101.516 221.315 101.555 220.938 101.555 220.482C101.555 220.021 101.516 219.647 101.439 219.361C101.361 219.069 101.249 218.856 101.104 218.72C100.963 218.584 100.798 218.516 100.608 218.516C100.419 218.516 100.254 218.584 100.113 218.72C99.9726 218.856 99.8609 219.069 99.7784 219.361C99.7007 219.647 99.6619 220.021 99.6619 220.482C99.6619 220.938 99.7007 221.315 99.7784 221.611C99.8609 221.907 99.9726 222.125 100.113 222.266C100.254 222.407 100.419 222.477 100.608 222.477ZM102.758 222.819V222.375H103.828V218.844H102.984V218.501C103.192 218.467 103.374 218.424 103.53 218.37C103.685 218.312 103.826 218.247 103.952 218.174H104.36V222.375H105.328V222.819H102.758ZM107.623 222.907C107.395 222.907 107.184 222.861 106.99 222.768C106.795 222.676 106.628 222.538 106.487 222.353C106.351 222.164 106.242 221.931 106.16 221.654C106.082 221.373 106.043 221.05 106.043 220.686C106.043 220.21 106.092 219.807 106.189 219.477C106.286 219.147 106.414 218.88 106.575 218.676C106.74 218.472 106.927 218.324 107.135 218.232C107.349 218.135 107.57 218.086 107.798 218.086C108.041 218.086 108.249 218.133 108.424 218.225C108.604 218.312 108.757 218.426 108.883 218.567L108.584 218.902C108.487 218.785 108.371 218.696 108.235 218.633C108.104 218.565 107.963 218.531 107.812 218.531C107.584 218.531 107.373 218.599 107.179 218.734C106.99 218.87 106.837 219.096 106.72 219.412C106.604 219.722 106.545 220.147 106.545 220.686C106.545 221.065 106.587 221.39 106.669 221.662C106.752 221.929 106.873 222.132 107.033 222.273C107.194 222.414 107.393 222.484 107.63 222.484C107.786 222.484 107.927 222.441 108.053 222.353C108.184 222.261 108.286 222.135 108.359 221.975C108.431 221.814 108.468 221.632 108.468 221.429C108.468 221.22 108.434 221.038 108.366 220.882C108.303 220.727 108.206 220.608 108.075 220.526C107.944 220.438 107.776 220.395 107.572 220.395C107.417 220.395 107.247 220.446 107.062 220.548C106.878 220.649 106.701 220.824 106.531 221.072L106.516 220.635C106.667 220.436 106.844 220.278 107.048 220.162C107.252 220.045 107.456 219.987 107.66 219.987C107.927 219.987 108.157 220.043 108.351 220.154C108.55 220.261 108.703 220.421 108.81 220.635C108.917 220.844 108.97 221.108 108.97 221.429C108.97 221.72 108.91 221.977 108.788 222.2C108.667 222.419 108.504 222.591 108.3 222.717C108.096 222.844 107.871 222.907 107.623 222.907Z" fill="#222539"/>
<path d="M122.698 222.819V222.506C123.174 222.026 123.577 221.606 123.907 221.247C124.237 220.882 124.487 220.557 124.657 220.271C124.827 219.984 124.912 219.713 124.912 219.455C124.912 219.183 124.837 218.96 124.686 218.785C124.541 218.611 124.31 218.523 123.995 218.523C123.8 218.523 123.616 218.577 123.441 218.683C123.271 218.79 123.118 218.926 122.982 219.091L122.669 218.785C122.864 218.577 123.07 218.409 123.288 218.283C123.507 218.152 123.764 218.086 124.06 218.086C124.342 218.086 124.584 218.142 124.788 218.254C124.997 218.366 125.157 218.523 125.269 218.727C125.38 218.926 125.436 219.162 125.436 219.433C125.436 219.73 125.351 220.028 125.181 220.329C125.016 220.63 124.786 220.95 124.49 221.29C124.198 221.625 123.861 221.994 123.478 222.397C123.604 222.387 123.735 222.38 123.871 222.375C124.007 222.365 124.135 222.361 124.257 222.361H125.662V222.819H122.698ZM127.782 222.907C127.326 222.907 126.967 222.698 126.705 222.281C126.447 221.858 126.319 221.259 126.319 220.482C126.319 219.7 126.447 219.106 126.705 218.698C126.967 218.29 127.326 218.086 127.782 218.086C128.243 218.086 128.603 218.293 128.86 218.705C129.117 219.113 129.246 219.705 129.246 220.482C129.246 221.259 129.117 221.858 128.86 222.281C128.603 222.698 128.243 222.907 127.782 222.907ZM127.782 222.477C127.972 222.477 128.137 222.407 128.277 222.266C128.423 222.125 128.535 221.907 128.612 221.611C128.69 221.315 128.729 220.938 128.729 220.482C128.729 220.021 128.69 219.647 128.612 219.361C128.535 219.069 128.423 218.856 128.277 218.72C128.137 218.584 127.972 218.516 127.782 218.516C127.593 218.516 127.428 218.584 127.287 218.72C127.146 218.856 127.035 219.069 126.952 219.361C126.875 219.647 126.836 220.021 126.836 220.482C126.836 220.938 126.875 221.315 126.952 221.611C127.035 221.907 127.146 222.125 127.287 222.266C127.428 222.407 127.593 222.477 127.782 222.477ZM129.932 222.819V222.375H131.002V218.844H130.157V218.501C130.366 218.467 130.548 218.424 130.704 218.37C130.859 218.312 131 218.247 131.126 218.174H131.534V222.375H132.502V222.819H129.932ZM134.171 222.819C134.195 222.227 134.256 221.696 134.353 221.225C134.45 220.754 134.593 220.312 134.782 219.899C134.972 219.482 135.219 219.06 135.525 218.633H133.18V218.174H136.137V218.494C135.86 218.849 135.634 219.191 135.46 219.521C135.285 219.846 135.146 220.176 135.045 220.511C134.947 220.846 134.875 221.2 134.826 221.574C134.778 221.948 134.741 222.363 134.717 222.819H134.171Z" fill="#222539"/>
<path d="M149.871 222.819V222.506C150.347 222.026 150.75 221.606 151.08 221.247C151.41 220.882 151.66 220.557 151.83 220.271C152 219.984 152.085 219.713 152.085 219.455C152.085 219.183 152.01 218.96 151.859 218.785C151.714 218.611 151.483 218.523 151.167 218.523C150.973 218.523 150.789 218.577 150.614 218.683C150.444 218.79 150.291 218.926 150.155 219.091L149.842 218.785C150.036 218.577 150.243 218.409 150.461 218.283C150.68 218.152 150.937 218.086 151.233 218.086C151.515 218.086 151.757 218.142 151.961 218.254C152.17 218.366 152.33 218.523 152.442 218.727C152.553 218.926 152.609 219.162 152.609 219.433C152.609 219.73 152.524 220.028 152.354 220.329C152.189 220.63 151.959 220.95 151.663 221.29C151.371 221.625 151.034 221.994 150.65 222.397C150.777 222.387 150.908 222.38 151.044 222.375C151.18 222.365 151.308 222.361 151.43 222.361H152.835V222.819H149.871ZM154.955 222.907C154.499 222.907 154.14 222.698 153.877 222.281C153.62 221.858 153.492 221.259 153.492 220.482C153.492 219.7 153.62 219.106 153.877 218.698C154.14 218.29 154.499 218.086 154.955 218.086C155.416 218.086 155.776 218.293 156.033 218.705C156.29 219.113 156.419 219.705 156.419 220.482C156.419 221.259 156.29 221.858 156.033 222.281C155.776 222.698 155.416 222.907 154.955 222.907ZM154.955 222.477C155.144 222.477 155.31 222.407 155.45 222.266C155.596 222.125 155.708 221.907 155.785 221.611C155.863 221.315 155.902 220.938 155.902 220.482C155.902 220.021 155.863 219.647 155.785 219.361C155.708 219.069 155.596 218.856 155.45 218.72C155.31 218.584 155.144 218.516 154.955 218.516C154.766 218.516 154.601 218.584 154.46 218.72C154.319 218.856 154.208 219.069 154.125 219.361C154.047 219.647 154.009 220.021 154.009 220.482C154.009 220.938 154.047 221.315 154.125 221.611C154.208 221.907 154.319 222.125 154.46 222.266C154.601 222.407 154.766 222.477 154.955 222.477ZM157.105 222.819V222.375H158.175V218.844H157.33V218.501C157.539 218.467 157.721 218.424 157.876 218.37C158.032 218.312 158.172 218.247 158.299 218.174H158.706V222.375H159.675V222.819H157.105ZM161.839 222.907C161.552 222.907 161.295 222.853 161.067 222.747C160.839 222.635 160.659 222.482 160.528 222.288C160.397 222.094 160.331 221.875 160.331 221.632C160.331 221.429 160.375 221.247 160.463 221.086C160.55 220.926 160.662 220.785 160.797 220.664C160.933 220.543 161.074 220.443 161.22 220.365V220.336C161.05 220.215 160.897 220.067 160.761 219.892C160.63 219.717 160.564 219.509 160.564 219.266C160.564 219.028 160.62 218.822 160.732 218.647C160.848 218.467 161.004 218.329 161.198 218.232C161.392 218.135 161.611 218.086 161.853 218.086C162.261 218.086 162.579 218.203 162.807 218.436C163.04 218.664 163.157 218.958 163.157 219.317C163.157 219.482 163.12 219.637 163.047 219.783C162.98 219.924 162.895 220.052 162.793 220.169C162.696 220.285 162.601 220.38 162.509 220.453V220.482C162.645 220.565 162.773 220.659 162.895 220.766C163.021 220.868 163.123 220.994 163.2 221.145C163.278 221.29 163.317 221.465 163.317 221.669C163.317 221.902 163.256 222.111 163.135 222.295C163.013 222.48 162.841 222.628 162.618 222.739C162.395 222.851 162.135 222.907 161.839 222.907ZM161.853 222.506C162.043 222.506 162.208 222.47 162.348 222.397C162.494 222.324 162.606 222.225 162.683 222.098C162.766 221.967 162.807 221.822 162.807 221.662C162.807 221.448 162.746 221.276 162.625 221.145C162.504 221.014 162.344 220.902 162.145 220.81C161.95 220.717 161.737 220.625 161.504 220.533C161.31 220.659 161.145 220.81 161.009 220.984C160.878 221.159 160.812 221.361 160.812 221.589C160.812 221.764 160.856 221.921 160.943 222.062C161.035 222.198 161.159 222.307 161.314 222.39C161.475 222.467 161.654 222.506 161.853 222.506ZM162.166 220.315C162.336 220.164 162.465 220.009 162.552 219.849C162.645 219.688 162.691 219.518 162.691 219.339C162.691 219.183 162.657 219.043 162.589 218.916C162.526 218.785 162.431 218.681 162.305 218.603C162.179 218.526 162.026 218.487 161.846 218.487C161.618 218.487 161.429 218.56 161.278 218.705C161.132 218.846 161.06 219.033 161.06 219.266C161.06 219.46 161.111 219.62 161.213 219.747C161.319 219.873 161.458 219.98 161.628 220.067C161.797 220.154 161.977 220.237 162.166 220.315Z" fill="#222539"/>
<path d="M177.044 222.819V222.506C177.52 222.026 177.923 221.606 178.253 221.247C178.583 220.882 178.833 220.557 179.003 220.271C179.173 219.984 179.258 219.713 179.258 219.455C179.258 219.183 179.183 218.96 179.032 218.785C178.886 218.611 178.656 218.523 178.34 218.523C178.146 218.523 177.962 218.577 177.787 218.683C177.617 218.79 177.464 218.926 177.328 219.091L177.015 218.785C177.209 218.577 177.416 218.409 177.634 218.283C177.852 218.152 178.11 218.086 178.406 218.086C178.687 218.086 178.93 218.142 179.134 218.254C179.343 218.366 179.503 218.523 179.615 218.727C179.726 218.926 179.782 219.162 179.782 219.433C179.782 219.73 179.697 220.028 179.527 220.329C179.362 220.63 179.132 220.95 178.835 221.29C178.544 221.625 178.207 221.994 177.823 222.397C177.95 222.387 178.081 222.38 178.217 222.375C178.352 222.365 178.481 222.361 178.602 222.361H180.008V222.819H177.044ZM182.128 222.907C181.672 222.907 181.312 222.698 181.05 222.281C180.793 221.858 180.664 221.259 180.664 220.482C180.664 219.7 180.793 219.106 181.05 218.698C181.312 218.29 181.672 218.086 182.128 218.086C182.589 218.086 182.948 218.293 183.206 218.705C183.463 219.113 183.592 219.705 183.592 220.482C183.592 221.259 183.463 221.858 183.206 222.281C182.948 222.698 182.589 222.907 182.128 222.907ZM182.128 222.477C182.317 222.477 182.482 222.407 182.623 222.266C182.769 222.125 182.88 221.907 182.958 221.611C183.036 221.315 183.075 220.938 183.075 220.482C183.075 220.021 183.036 219.647 182.958 219.361C182.88 219.069 182.769 218.856 182.623 218.72C182.482 218.584 182.317 218.516 182.128 218.516C181.939 218.516 181.774 218.584 181.633 218.72C181.492 218.856 181.38 219.069 181.298 219.361C181.22 219.647 181.181 220.021 181.181 220.482C181.181 220.938 181.22 221.315 181.298 221.611C181.38 221.907 181.492 222.125 181.633 222.266C181.774 222.407 181.939 222.477 182.128 222.477ZM184.277 222.819V222.375H185.348V218.844H184.503V218.501C184.712 218.467 184.894 218.424 185.049 218.37C185.205 218.312 185.345 218.247 185.472 218.174H185.879V222.375H186.848V222.819H184.277ZM188.677 222.907C188.434 222.907 188.223 222.861 188.043 222.768C187.864 222.676 187.713 222.562 187.592 222.426L187.89 222.091C187.987 222.208 188.104 222.3 188.24 222.368C188.376 222.431 188.514 222.463 188.655 222.463C188.888 222.463 189.099 222.395 189.288 222.259C189.482 222.123 189.635 221.897 189.747 221.581C189.864 221.266 189.922 220.841 189.922 220.307C189.922 219.929 189.881 219.606 189.798 219.339C189.72 219.067 189.601 218.861 189.441 218.72C189.281 218.579 189.082 218.509 188.844 218.509C188.689 218.509 188.548 218.555 188.422 218.647C188.296 218.734 188.194 218.858 188.116 219.018C188.043 219.174 188.007 219.356 188.007 219.565C188.007 219.773 188.038 219.955 188.101 220.111C188.169 220.266 188.269 220.387 188.4 220.475C188.531 220.557 188.698 220.598 188.902 220.598C189.058 220.598 189.228 220.548 189.412 220.446C189.597 220.339 189.774 220.162 189.944 219.914L189.958 220.358C189.813 220.552 189.635 220.71 189.427 220.831C189.223 220.948 189.019 221.006 188.815 221.006C188.548 221.006 188.315 220.953 188.116 220.846C187.917 220.734 187.764 220.572 187.657 220.358C187.55 220.145 187.497 219.88 187.497 219.565C187.497 219.273 187.558 219.016 187.679 218.793C187.805 218.569 187.97 218.397 188.174 218.276C188.378 218.149 188.601 218.086 188.844 218.086C189.077 218.086 189.288 218.133 189.478 218.225C189.672 218.317 189.839 218.458 189.98 218.647C190.121 218.832 190.23 219.065 190.308 219.346C190.39 219.623 190.431 219.943 190.431 220.307C190.431 220.778 190.383 221.181 190.286 221.516C190.189 221.846 190.058 222.113 189.893 222.317C189.728 222.521 189.541 222.671 189.332 222.768C189.123 222.861 188.905 222.907 188.677 222.907Z" fill="#222539"/>
<path d="M204.217 222.819V222.506C204.693 222.026 205.096 221.606 205.426 221.247C205.756 220.882 206.006 220.557 206.176 220.271C206.346 219.984 206.431 219.713 206.431 219.455C206.431 219.183 206.355 218.96 206.205 218.785C206.059 218.611 205.829 218.523 205.513 218.523C205.319 218.523 205.135 218.577 204.96 218.683C204.79 218.79 204.637 218.926 204.501 219.091L204.188 218.785C204.382 218.577 204.588 218.409 204.807 218.283C205.025 218.152 205.283 218.086 205.579 218.086C205.86 218.086 206.103 218.142 206.307 218.254C206.516 218.366 206.676 218.523 206.787 218.727C206.899 218.926 206.955 219.162 206.955 219.433C206.955 219.73 206.87 220.028 206.7 220.329C206.535 220.63 206.304 220.95 206.008 221.29C205.717 221.625 205.38 221.994 204.996 222.397C205.122 222.387 205.253 222.38 205.389 222.375C205.525 222.365 205.654 222.361 205.775 222.361H207.181V222.819H204.217ZM209.301 222.907C208.845 222.907 208.485 222.698 208.223 222.281C207.966 221.858 207.837 221.259 207.837 220.482C207.837 219.7 207.966 219.106 208.223 218.698C208.485 218.29 208.845 218.086 209.301 218.086C209.762 218.086 210.121 218.293 210.379 218.705C210.636 219.113 210.764 219.705 210.764 220.482C210.764 221.259 210.636 221.858 210.379 222.281C210.121 222.698 209.762 222.907 209.301 222.907ZM209.301 222.477C209.49 222.477 209.655 222.407 209.796 222.266C209.942 222.125 210.053 221.907 210.131 221.611C210.209 221.315 210.247 220.938 210.247 220.482C210.247 220.021 210.209 219.647 210.131 219.361C210.053 219.069 209.942 218.856 209.796 218.72C209.655 218.584 209.49 218.516 209.301 218.516C209.112 218.516 208.946 218.584 208.806 218.72C208.665 218.856 208.553 219.069 208.471 219.361C208.393 219.647 208.354 220.021 208.354 220.482C208.354 220.938 208.393 221.315 208.471 221.611C208.553 221.907 208.665 222.125 208.806 222.266C208.946 222.407 209.112 222.477 209.301 222.477ZM211.385 222.819V222.506C211.86 222.026 212.263 221.606 212.593 221.247C212.924 220.882 213.174 220.557 213.343 220.271C213.513 219.984 213.598 219.713 213.598 219.455C213.598 219.183 213.523 218.96 213.373 218.785C213.227 218.611 212.996 218.523 212.681 218.523C212.487 218.523 212.302 218.577 212.127 218.683C211.958 218.79 211.805 218.926 211.669 219.091L211.356 218.785C211.55 218.577 211.756 218.409 211.975 218.283C212.193 218.152 212.45 218.086 212.746 218.086C213.028 218.086 213.271 218.142 213.474 218.254C213.683 218.366 213.843 218.523 213.955 218.727C214.067 218.926 214.123 219.162 214.123 219.433C214.123 219.73 214.038 220.028 213.868 220.329C213.703 220.63 213.472 220.95 213.176 221.29C212.885 221.625 212.547 221.994 212.164 222.397C212.29 222.387 212.421 222.38 212.557 222.375C212.693 222.365 212.822 222.361 212.943 222.361H214.348V222.819H211.385ZM216.469 222.907C216.012 222.907 215.653 222.698 215.391 222.281C215.134 221.858 215.005 221.259 215.005 220.482C215.005 219.7 215.134 219.106 215.391 218.698C215.653 218.29 216.012 218.086 216.469 218.086C216.93 218.086 217.289 218.293 217.546 218.705C217.803 219.113 217.932 219.705 217.932 220.482C217.932 221.259 217.803 221.858 217.546 222.281C217.289 222.698 216.93 222.907 216.469 222.907ZM216.469 222.477C216.658 222.477 216.823 222.407 216.964 222.266C217.109 222.125 217.221 221.907 217.299 221.611C217.376 221.315 217.415 220.938 217.415 220.482C217.415 220.021 217.376 219.647 217.299 219.361C217.221 219.069 217.109 218.856 216.964 218.72C216.823 218.584 216.658 218.516 216.469 218.516C216.279 218.516 216.114 218.584 215.973 218.72C215.833 218.856 215.721 219.069 215.638 219.361C215.561 219.647 215.522 220.021 215.522 220.482C215.522 220.938 215.561 221.315 215.638 221.611C215.721 221.907 215.833 222.125 215.973 222.266C216.114 222.407 216.279 222.477 216.469 222.477Z" fill="#222539"/>
<path d="M231.391 222.819V222.506C231.867 222.026 232.269 221.606 232.6 221.247C232.93 220.882 233.18 220.557 233.35 220.271C233.519 219.984 233.604 219.713 233.604 219.455C233.604 219.183 233.529 218.96 233.379 218.785C233.233 218.611 233.002 218.523 232.687 218.523C232.493 218.523 232.308 218.577 232.134 218.683C231.964 218.79 231.811 218.926 231.675 219.091L231.362 218.785C231.556 218.577 231.762 218.409 231.981 218.283C232.199 218.152 232.456 218.086 232.752 218.086C233.034 218.086 233.277 218.142 233.481 218.254C233.689 218.366 233.85 218.523 233.961 218.727C234.073 218.926 234.129 219.162 234.129 219.433C234.129 219.73 234.044 220.028 233.874 220.329C233.709 220.63 233.478 220.95 233.182 221.29C232.891 221.625 232.553 221.994 232.17 222.397C232.296 222.387 232.427 222.38 232.563 222.375C232.699 222.365 232.828 222.361 232.949 222.361H234.354V222.819H231.391ZM236.475 222.907C236.018 222.907 235.659 222.698 235.397 222.281C235.14 221.858 235.011 221.259 235.011 220.482C235.011 219.7 235.14 219.106 235.397 218.698C235.659 218.29 236.018 218.086 236.475 218.086C236.936 218.086 237.295 218.293 237.552 218.705C237.81 219.113 237.938 219.705 237.938 220.482C237.938 221.259 237.81 221.858 237.552 222.281C237.295 222.698 236.936 222.907 236.475 222.907ZM236.475 222.477C236.664 222.477 236.829 222.407 236.97 222.266C237.115 222.125 237.227 221.907 237.305 221.611C237.382 221.315 237.421 220.938 237.421 220.482C237.421 220.021 237.382 219.647 237.305 219.361C237.227 219.069 237.115 218.856 236.97 218.72C236.829 218.584 236.664 218.516 236.475 218.516C236.285 218.516 236.12 218.584 235.98 218.72C235.839 218.856 235.727 219.069 235.645 219.361C235.567 219.647 235.528 220.021 235.528 220.482C235.528 220.938 235.567 221.315 235.645 221.611C235.727 221.907 235.839 222.125 235.98 222.266C236.12 222.407 236.285 222.477 236.475 222.477ZM238.559 222.819V222.506C239.034 222.026 239.437 221.606 239.767 221.247C240.097 220.882 240.347 220.557 240.517 220.271C240.687 219.984 240.772 219.713 240.772 219.455C240.772 219.183 240.697 218.96 240.546 218.785C240.401 218.611 240.17 218.523 239.855 218.523C239.66 218.523 239.476 218.577 239.301 218.683C239.131 218.79 238.978 218.926 238.843 219.091L238.529 218.785C238.724 218.577 238.93 218.409 239.148 218.283C239.367 218.152 239.624 218.086 239.92 218.086C240.202 218.086 240.444 218.142 240.648 218.254C240.857 218.366 241.017 218.523 241.129 218.727C241.241 218.926 241.296 219.162 241.296 219.433C241.296 219.73 241.211 220.028 241.042 220.329C240.876 220.63 240.646 220.95 240.35 221.29C240.059 221.625 239.721 221.994 239.338 222.397C239.464 222.387 239.595 222.38 239.731 222.375C239.867 222.365 239.995 222.361 240.117 222.361H241.522V222.819H238.559ZM242.208 222.819V222.375H243.278V218.844H242.434V218.501C242.642 218.467 242.824 218.424 242.98 218.37C243.135 218.312 243.276 218.247 243.402 218.174H243.81V222.375H244.778V222.819H242.208Z" fill="#222539"/>
<path d="M20.9039 48V47.5558H21.9743V44.0243H21.1297V43.6821C21.3384 43.6481 21.5204 43.6044 21.6758 43.551C21.8311 43.4928 21.9719 43.4272 22.0981 43.3544H22.5058V47.5558H23.4743V48H20.9039ZM25.5216 48.0874C25.274 48.0874 25.0556 48.0583 24.8663 48C24.6818 47.9369 24.5192 47.8568 24.3784 47.7597C24.2425 47.6626 24.1212 47.5607 24.0144 47.4539L24.2838 47.1044C24.4245 47.2403 24.5872 47.3641 24.7716 47.4757C24.9609 47.5874 25.1964 47.6432 25.4779 47.6432C25.6721 47.6432 25.8493 47.5971 26.0095 47.5049C26.1697 47.4126 26.2959 47.284 26.3881 47.1189C26.4803 46.9539 26.5265 46.7597 26.5265 46.5364C26.5265 46.2015 26.4342 45.9418 26.2498 45.7573C26.0653 45.568 25.8177 45.4733 25.5071 45.4733C25.342 45.4733 25.1988 45.4976 25.0774 45.5462C24.9609 45.5947 24.8323 45.6651 24.6915 45.7573L24.4003 45.5753L24.5532 43.3544H26.8323V43.8132H25.0192L24.8881 45.2622C25.0046 45.1991 25.1211 45.1505 25.2376 45.1165C25.3541 45.0777 25.4852 45.0583 25.6308 45.0583C25.8978 45.0583 26.1381 45.1117 26.3517 45.2185C26.5701 45.3204 26.7425 45.4782 26.8687 45.6918C26.9998 45.9054 27.0653 46.1796 27.0653 46.5146C27.0653 46.8495 26.9925 47.1359 26.8468 47.3738C26.7012 47.6068 26.5095 47.784 26.2716 47.9053C26.0386 48.0267 25.7886 48.0874 25.5216 48.0874ZM29.2074 48.0874C28.7511 48.0874 28.3919 47.8786 28.1297 47.4612C27.8725 47.0388 27.7438 46.4393 27.7438 45.6627C27.7438 44.8811 27.8725 44.2865 28.1297 43.8787C28.3919 43.4709 28.7511 43.2671 29.2074 43.2671C29.6686 43.2671 30.0278 43.4734 30.2851 43.886C30.5423 44.2937 30.671 44.886 30.671 45.6627C30.671 46.4393 30.5423 47.0388 30.2851 47.4612C30.0278 47.8786 29.6686 48.0874 29.2074 48.0874ZM29.2074 47.6578C29.3967 47.6578 29.5618 47.5874 29.7025 47.4466C29.8482 47.3058 29.9598 47.0874 30.0375 46.7913C30.1152 46.4952 30.154 46.119 30.154 45.6627C30.154 45.2015 30.1152 44.8277 30.0375 44.5413C29.9598 44.2501 29.8482 44.0365 29.7025 43.9005C29.5618 43.7646 29.3967 43.6967 29.2074 43.6967C29.0181 43.6967 28.853 43.7646 28.7123 43.9005C28.5715 44.0365 28.4598 44.2501 28.3773 44.5413C28.2996 44.8277 28.2608 45.2015 28.2608 45.6627C28.2608 46.119 28.2996 46.4952 28.3773 46.7913C28.4598 47.0874 28.5715 47.3058 28.7123 47.4466C28.853 47.5874 29.0181 47.6578 29.2074 47.6578ZM20.9039 76V75.5558H21.9743V72.0243H21.1297V71.6821C21.3384 71.6481 21.5204 71.6044 21.6758 71.551C21.8311 71.4928 21.9719 71.4272 22.0981 71.3544H22.5058V75.5558H23.4743V76H20.9039ZM24.1236 76V75.6869C24.5993 75.2063 25.0022 74.7864 25.3323 74.4272C25.6624 74.0631 25.9124 73.7379 26.0823 73.4515C26.2522 73.1651 26.3371 72.8932 26.3371 72.636C26.3371 72.3641 26.2619 72.1408 26.1114 71.9661C25.9658 71.7913 25.7352 71.7039 25.4197 71.7039C25.2255 71.7039 25.041 71.7573 24.8663 71.8641C24.6964 71.9709 24.5435 72.1069 24.4076 72.2719L24.0945 71.9661C24.2886 71.7573 24.4949 71.5899 24.7134 71.4637C24.9318 71.3326 25.1891 71.2671 25.4852 71.2671C25.7668 71.2671 26.0095 71.3229 26.2134 71.4345C26.4221 71.5462 26.5823 71.7039 26.6939 71.9078C26.8056 72.1069 26.8614 72.3423 26.8614 72.6141C26.8614 72.9102 26.7765 73.2088 26.6066 73.5097C26.4415 73.8107 26.2109 74.1311 25.9148 74.4709C25.6236 74.8058 25.2862 75.1748 24.9027 75.5777C25.0289 75.568 25.16 75.5607 25.2959 75.5558C25.4318 75.5461 25.5605 75.5413 25.6818 75.5413H27.0871V76H24.1236ZM29.1055 76.0874C28.8579 76.0874 28.6394 76.0583 28.4501 76C28.2657 75.9369 28.103 75.8568 27.9623 75.7597C27.8263 75.6626 27.705 75.5607 27.5982 75.4539L27.8676 75.1044C28.0084 75.2403 28.171 75.3641 28.3555 75.4757C28.5448 75.5874 28.7802 75.6432 29.0618 75.6432C29.2559 75.6432 29.4331 75.5971 29.5933 75.5049C29.7535 75.4126 29.8797 75.284 29.972 75.1189C30.0642 74.9539 30.1103 74.7597 30.1103 74.5364C30.1103 74.2015 30.0181 73.9418 29.8336 73.7573C29.6491 73.568 29.4016 73.4733 29.0909 73.4733C28.9258 73.4733 28.7826 73.4976 28.6613 73.5462C28.5448 73.5947 28.4161 73.6651 28.2754 73.7573L27.9841 73.5753L28.137 71.3544H30.4161V71.8132H28.603L28.472 73.2622C28.5885 73.1991 28.705 73.1505 28.8215 73.1165C28.938 73.0777 29.0691 73.0583 29.2147 73.0583C29.4817 73.0583 29.722 73.1117 29.9355 73.2185C30.154 73.3204 30.3263 73.4782 30.4525 73.6918C30.5836 73.9054 30.6491 74.1796 30.6491 74.5146C30.6491 74.8495 30.5763 75.1359 30.4307 75.3738C30.2851 75.6068 30.0933 75.784 29.8554 75.9053C29.6224 76.0267 29.3724 76.0874 29.1055 76.0874ZM20.9039 104V103.556H21.9743V100.024H21.1297V99.6821C21.3384 99.6481 21.5204 99.6044 21.6758 99.551C21.8311 99.4928 21.9719 99.4272 22.0981 99.3544H22.5058V103.556H23.4743V104H20.9039ZM25.6236 104.087C25.1673 104.087 24.808 103.879 24.5459 103.461C24.2886 103.039 24.16 102.439 24.16 101.663C24.16 100.881 24.2886 100.286 24.5459 99.8787C24.808 99.4709 25.1673 99.2671 25.6236 99.2671C26.0847 99.2671 26.4439 99.4734 26.7012 99.886C26.9585 100.294 27.0871 100.886 27.0871 101.663C27.0871 102.439 26.9585 103.039 26.7012 103.461C26.4439 103.879 26.0847 104.087 25.6236 104.087ZM25.6236 103.658C25.8129 103.658 25.9779 103.587 26.1187 103.447C26.2643 103.306 26.376 103.087 26.4536 102.791C26.5313 102.495 26.5701 102.119 26.5701 101.663C26.5701 101.201 26.5313 100.828 26.4536 100.541C26.376 100.25 26.2643 100.036 26.1187 99.9005C25.9779 99.7646 25.8129 99.6967 25.6236 99.6967C25.4342 99.6967 25.2692 99.7646 25.1284 99.9005C24.9876 100.036 24.876 100.25 24.7935 100.541C24.7158 100.828 24.677 101.201 24.677 101.663C24.677 102.119 24.7158 102.495 24.7935 102.791C24.876 103.087 24.9876 103.306 25.1284 103.447C25.2692 103.587 25.4342 103.658 25.6236 103.658ZM29.2074 104.087C28.7511 104.087 28.3919 103.879 28.1297 103.461C27.8725 103.039 27.7438 102.439 27.7438 101.663C27.7438 100.881 27.8725 100.286 28.1297 99.8787C28.3919 99.4709 28.7511 99.2671 29.2074 99.2671C29.6686 99.2671 30.0278 99.4734 30.2851 99.886C30.5423 100.294 30.671 100.886 30.671 101.663C30.671 102.439 30.5423 103.039 30.2851 103.461C30.0278 103.879 29.6686 104.087 29.2074 104.087ZM29.2074 103.658C29.3967 103.658 29.5618 103.587 29.7025 103.447C29.8482 103.306 29.9598 103.087 30.0375 102.791C30.1152 102.495 30.154 102.119 30.154 101.663C30.154 101.201 30.1152 100.828 30.0375 100.541C29.9598 100.25 29.8482 100.036 29.7025 99.9005C29.5618 99.7646 29.3967 99.6967 29.2074 99.6967C29.0181 99.6967 28.853 99.7646 28.7123 99.9005C28.5715 100.036 28.4598 100.25 28.3773 100.541C28.2996 100.828 28.2608 101.201 28.2608 101.663C28.2608 102.119 28.2996 102.495 28.3773 102.791C28.4598 103.087 28.5715 103.306 28.7123 103.447C28.853 103.587 29.0181 103.658 29.2074 103.658ZM25.143 132C25.1673 131.408 25.2279 130.876 25.325 130.405C25.4221 129.934 25.5653 129.493 25.7546 129.08C25.9439 128.663 26.1915 128.24 26.4973 127.813H24.1527V127.354H27.109V127.675C26.8323 128.029 26.6066 128.371 26.4318 128.702C26.257 129.027 26.1187 129.357 26.0168 129.692C25.9197 130.027 25.8469 130.381 25.7983 130.755C25.7498 131.129 25.7134 131.544 25.6891 132H25.143ZM29.1055 132.087C28.8579 132.087 28.6394 132.058 28.4501 132C28.2657 131.937 28.103 131.857 27.9623 131.76C27.8263 131.663 27.705 131.561 27.5982 131.454L27.8676 131.104C28.0084 131.24 28.171 131.364 28.3555 131.476C28.5448 131.587 28.7802 131.643 29.0618 131.643C29.2559 131.643 29.4331 131.597 29.5933 131.505C29.7535 131.413 29.8797 131.284 29.972 131.119C30.0642 130.954 30.1103 130.76 30.1103 130.536C30.1103 130.201 30.0181 129.942 29.8336 129.757C29.6491 129.568 29.4016 129.473 29.0909 129.473C28.9258 129.473 28.7826 129.498 28.6613 129.546C28.5448 129.595 28.4161 129.665 28.2754 129.757L27.9841 129.575L28.137 127.354H30.4161V127.813H28.603L28.472 129.262C28.5885 129.199 28.705 129.151 28.8215 129.117C28.938 129.078 29.0691 129.058 29.2147 129.058C29.4817 129.058 29.722 129.112 29.9355 129.218C30.154 129.32 30.3263 129.478 30.4525 129.692C30.5836 129.905 30.6491 130.18 30.6491 130.515C30.6491 130.85 30.5763 131.136 30.4307 131.374C30.2851 131.607 30.0933 131.784 29.8554 131.905C29.6224 132.027 29.3724 132.087 29.1055 132.087ZM25.5216 160.087C25.274 160.087 25.0556 160.058 24.8663 160C24.6818 159.937 24.5192 159.857 24.3784 159.76C24.2425 159.663 24.1212 159.561 24.0144 159.454L24.2838 159.104C24.4245 159.24 24.5872 159.364 24.7716 159.476C24.9609 159.587 25.1964 159.643 25.4779 159.643C25.6721 159.643 25.8493 159.597 26.0095 159.505C26.1697 159.413 26.2959 159.284 26.3881 159.119C26.4803 158.954 26.5265 158.76 26.5265 158.536C26.5265 158.201 26.4342 157.942 26.2498 157.757C26.0653 157.568 25.8177 157.473 25.5071 157.473C25.342 157.473 25.1988 157.498 25.0774 157.546C24.9609 157.595 24.8323 157.665 24.6915 157.757L24.4003 157.575L24.5532 155.354H26.8323V155.813H25.0192L24.8881 157.262C25.0046 157.199 25.1211 157.151 25.2376 157.117C25.3541 157.078 25.4852 157.058 25.6308 157.058C25.8978 157.058 26.1381 157.112 26.3517 157.218C26.5701 157.32 26.7425 157.478 26.8687 157.692C26.9998 157.905 27.0653 158.18 27.0653 158.515C27.0653 158.85 26.9925 159.136 26.8468 159.374C26.7012 159.607 26.5095 159.784 26.2716 159.905C26.0386 160.027 25.7886 160.087 25.5216 160.087ZM29.2074 160.087C28.7511 160.087 28.3919 159.879 28.1297 159.461C27.8725 159.039 27.7438 158.439 27.7438 157.663C27.7438 156.881 27.8725 156.286 28.1297 155.879C28.3919 155.471 28.7511 155.267 29.2074 155.267C29.6686 155.267 30.0278 155.473 30.2851 155.886C30.5423 156.294 30.671 156.886 30.671 157.663C30.671 158.439 30.5423 159.039 30.2851 159.461C30.0278 159.879 29.6686 160.087 29.2074 160.087ZM29.2074 159.658C29.3967 159.658 29.5618 159.587 29.7025 159.447C29.8482 159.306 29.9598 159.087 30.0375 158.791C30.1152 158.495 30.154 158.119 30.154 157.663C30.154 157.201 30.1152 156.828 30.0375 156.541C29.9598 156.25 29.8482 156.036 29.7025 155.901C29.5618 155.765 29.3967 155.697 29.2074 155.697C29.0181 155.697 28.853 155.765 28.7123 155.901C28.5715 156.036 28.4598 156.25 28.3773 156.541C28.2996 156.828 28.2608 157.201 28.2608 157.663C28.2608 158.119 28.2996 158.495 28.3773 158.791C28.4598 159.087 28.5715 159.306 28.7123 159.447C28.853 159.587 29.0181 159.658 29.2074 159.658ZM24.1236 188V187.687C24.5993 187.206 25.0022 186.786 25.3323 186.427C25.6624 186.063 25.9124 185.738 26.0823 185.451C26.2522 185.165 26.3371 184.893 26.3371 184.636C26.3371 184.364 26.2619 184.141 26.1114 183.966C25.9658 183.791 25.7352 183.704 25.4197 183.704C25.2255 183.704 25.041 183.757 24.8663 183.864C24.6964 183.971 24.5435 184.107 24.4076 184.272L24.0945 183.966C24.2886 183.757 24.4949 183.59 24.7134 183.464C24.9318 183.333 25.1891 183.267 25.4852 183.267C25.7668 183.267 26.0095 183.323 26.2134 183.435C26.4221 183.546 26.5823 183.704 26.6939 183.908C26.8056 184.107 26.8614 184.342 26.8614 184.614C26.8614 184.91 26.7765 185.209 26.6066 185.51C26.4415 185.811 26.2109 186.131 25.9148 186.471C25.6236 186.806 25.2862 187.175 24.9027 187.578C25.0289 187.568 25.16 187.561 25.2959 187.556C25.4318 187.546 25.5605 187.541 25.6818 187.541H27.0871V188H24.1236ZM29.1055 188.087C28.8579 188.087 28.6394 188.058 28.4501 188C28.2657 187.937 28.103 187.857 27.9623 187.76C27.8263 187.663 27.705 187.561 27.5982 187.454L27.8676 187.104C28.0084 187.24 28.171 187.364 28.3555 187.476C28.5448 187.587 28.7802 187.643 29.0618 187.643C29.2559 187.643 29.4331 187.597 29.5933 187.505C29.7535 187.413 29.8797 187.284 29.972 187.119C30.0642 186.954 30.1103 186.76 30.1103 186.536C30.1103 186.201 30.0181 185.942 29.8336 185.757C29.6491 185.568 29.4016 185.473 29.0909 185.473C28.9258 185.473 28.7826 185.498 28.6613 185.546C28.5448 185.595 28.4161 185.665 28.2754 185.757L27.9841 185.575L28.137 183.354H30.4161V183.813H28.603L28.472 185.262C28.5885 185.199 28.705 185.151 28.8215 185.117C28.938 185.078 29.0691 185.058 29.2147 185.058C29.4817 185.058 29.722 185.112 29.9355 185.218C30.154 185.32 30.3263 185.478 30.4525 185.692C30.5836 185.905 30.6491 186.18 30.6491 186.515C30.6491 186.85 30.5763 187.136 30.4307 187.374C30.2851 187.607 30.0933 187.784 29.8554 187.905C29.6224 188.027 29.3724 188.087 29.1055 188.087ZM29.2074 216.087C28.7511 216.087 28.3919 215.879 28.1297 215.461C27.8725 215.039 27.7438 214.439 27.7438 213.663C27.7438 212.881 27.8725 212.286 28.1297 211.879C28.3919 211.471 28.7511 211.267 29.2074 211.267C29.6686 211.267 30.0278 211.473 30.2851 211.886C30.5423 212.294 30.671 212.886 30.671 213.663C30.671 214.439 30.5423 215.039 30.2851 215.461C30.0278 215.879 29.6686 216.087 29.2074 216.087ZM29.2074 215.658C29.3967 215.658 29.5618 215.587 29.7025 215.447C29.8482 215.306 29.9598 215.087 30.0375 214.791C30.1152 214.495 30.154 214.119 30.154 213.663C30.154 213.201 30.1152 212.828 30.0375 212.541C29.9598 212.25 29.8482 212.036 29.7025 211.901C29.5618 211.765 29.3967 211.697 29.2074 211.697C29.0181 211.697 28.853 211.765 28.7123 211.901C28.5715 212.036 28.4598 212.25 28.3773 212.541C28.2996 212.828 28.2608 213.201 28.2608 213.663C28.2608 214.119 28.2996 214.495 28.3773 214.791C28.4598 215.087 28.5715 215.306 28.7123 215.447C28.853 215.587 29.0181 215.658 29.2074 215.658Z" fill="#222539"/>
<rect x="36.8525" y="155.747" width="23.6647" height="51.8803" fill="#56B4E9"/>
<rect x="63.9297" y="148.921" width="23.6647" height="58.7067" fill="#56B4E9"/>
<rect x="91.0078" y="133.448" width="23.6647" height="74.1798" fill="#56B4E9"/>
<rect x="118.085" y="113.424" width="23.6647" height="94.2038" fill="#56B4E9"/>
<rect x="145.162" y="85.209" width="23.6647" height="122.419" fill="#56B4E9"/>
<rect x="172.24" y="77.0166" width="23.6647" height="130.611" fill="#56B4E9"/>
<rect x="199.317" y="68.3701" width="23.6647" height="139.258" fill="#56B4E9"/>
<rect x="226.395" y="56.9932" width="23.6647" height="150.635" fill="#56B4E9"/>
<path d="M16.7979 128.947H12.4727V130.418H12.0139V126.945H12.4727V128.408H16.7979V128.947ZM16.7979 126.12H13.2663V125.596H16.7979V126.12ZM12.5091 125.851C12.5091 125.953 12.4751 126.04 12.4071 126.113C12.3392 126.181 12.2494 126.215 12.1377 126.215C12.0309 126.215 11.946 126.181 11.8829 126.113C11.8149 126.04 11.7809 125.953 11.7809 125.851C11.7809 125.744 11.8149 125.657 11.8829 125.589C11.946 125.521 12.0309 125.487 12.1377 125.487C12.2494 125.487 12.3392 125.521 12.4071 125.589C12.4751 125.657 12.5091 125.744 12.5091 125.851ZM16.8852 123.287C16.8852 123.651 16.7784 123.905 16.5648 124.051C16.3513 124.192 16.0746 124.262 15.7348 124.262H13.7032V124.794H13.3028L13.2663 124.24L12.2688 124.175V123.731H13.2663V122.762H13.7032V123.731H15.7493C15.9678 123.731 16.1401 123.692 16.2663 123.614C16.3877 123.532 16.4483 123.384 16.4483 123.17C16.4483 123.107 16.4386 123.039 16.4192 122.966C16.3998 122.888 16.378 122.821 16.3537 122.762L16.7542 122.653C16.7881 122.75 16.8173 122.855 16.8415 122.966C16.8707 123.078 16.8852 123.185 16.8852 123.287ZM16.8852 121.371C16.8852 121.502 16.8561 121.611 16.7979 121.699C16.7445 121.786 16.6644 121.849 16.5576 121.888C16.4459 121.927 16.31 121.946 16.1498 121.946H11.5989V121.422H16.1935C16.2809 121.422 16.344 121.405 16.3828 121.371C16.4216 121.337 16.4411 121.298 16.4411 121.255C16.4411 121.24 16.4411 121.223 16.4411 121.204C16.4362 121.184 16.4314 121.158 16.4265 121.124L16.8343 121.051C16.844 121.09 16.8537 121.136 16.8634 121.189C16.8779 121.238 16.8852 121.298 16.8852 121.371ZM16.8852 118.728C16.8852 119.034 16.8124 119.315 16.6668 119.573C16.5163 119.825 16.3051 120.026 16.0333 120.177C15.7566 120.327 15.4241 120.403 15.0357 120.403C14.6523 120.403 14.3222 120.327 14.0455 120.177C13.7688 120.026 13.5552 119.832 13.4047 119.594C13.2542 119.352 13.179 119.094 13.179 118.823C13.179 118.531 13.2469 118.281 13.3829 118.073C13.5188 117.864 13.7105 117.706 13.9581 117.599C14.2008 117.488 14.4921 117.432 14.8319 117.432C14.8901 117.432 14.9484 117.434 15.0066 117.439C15.06 117.439 15.1086 117.444 15.1522 117.454V119.988L14.7663 119.995V117.905C14.3877 117.905 14.1013 117.985 13.9071 118.145C13.7081 118.306 13.6086 118.529 13.6086 118.815C13.6086 118.99 13.6595 119.16 13.7615 119.325C13.8634 119.49 14.0188 119.626 14.2275 119.733C14.4362 119.84 14.7056 119.893 15.0357 119.893C15.3513 119.893 15.6134 119.837 15.8221 119.726C16.0309 119.614 16.1886 119.466 16.2954 119.281C16.4022 119.092 16.4556 118.886 16.4556 118.662C16.4556 118.483 16.4289 118.323 16.3755 118.182C16.3221 118.036 16.2542 117.898 16.1716 117.767L16.5212 117.57C16.6182 117.721 16.7032 117.891 16.776 118.08C16.8488 118.264 16.8852 118.48 16.8852 118.728Z" fill="#3F4252"/>
<defs>
<clipPath id="clip0_2364_12394">
<rect x="0.106445" y="0.106445" width="264.894" height="267.593" rx="3.64073" fill="white"/>
</clipPath>
</defs>
</svg>
